<svg xmlns="http://www.w3.org/2000/svg" viewBox="0 0 760 2100" role="img" aria-labelledby="title desc">
<title id="title">Four software development areas</title>
<desc id="desc">Industrial monitoring, business data tools, offline OCR and full-stack local-first platforms.</desc>
<rect width="760" height="2100" fill="#FFFFFF" fill-opacity="0.01"/>
<rect x="30" y="20" width="700" height="465" rx="26" fill="#EFF6FF" stroke="#B6D2FF" stroke-width="2"/>
<circle cx="380" cy="112" r="57" fill="#FFFFFF" stroke="#B6D2FF" stroke-width="3"/>

<g transform="translate(347.24 82.36) scale(0.78)" fill="none" stroke="#1F6FEB" stroke-width="5" stroke-linecap="round" stroke-linejoin="round">
  <rect x="2" y="58" width="34" height="14" rx="5"/>
  <circle cx="25" cy="50" r="9"/>
  <path d="M31 43 L48 28 L61 40 L46 55"/>
  <circle cx="49" cy="27" r="8"/>
  <path d="M56 21 L70 11"/>
  <path d="M66 7 L76 17"/>
  <path d="M70 44 L79 52"/>
  <path d="M72 35 Q84 42 86 55"/>
  <path d="M76 26 Q94 37 96 58"/>
</g>
<line x1="72" y1="198" x2="688" y2="198" stroke="#B6D2FF" stroke-width="2"/>
<circle cx="380" cy="198" r="25" fill="#1F6FEB"/>
<text x="380" y="206" fill="#FFFFFF" font-family="Inter, Segoe UI, Arial, sans-serif" font-size="20" font-weight="700" text-anchor="middle">01</text>
<text x="70" y="265" fill="#24292F" font-family="Inter, Segoe UI, Arial, sans-serif" font-size="30" font-weight="700" text-anchor="start"><tspan x="70" dy="0">Industrial monitoring</tspan><tspan x="70" dy="36">and integration</tspan></text>
<text x="70" y="350" fill="#57606A" font-family="Inter, Segoe UI, Arial, sans-serif" font-size="19" font-weight="400" text-anchor="start"><tspan x="70" dy="0">Applications that communicate with operational systems, interpret</tspan><tspan x="70" dy="27">machine data, visualize live states and expose safe control or</tspan><tspan x="70" dy="27">diagnostic workflows.</tspan></text>
<line x1="70" y1="445" x2="690" y2="445" stroke="#1F6FEB" stroke-width="4" stroke-linecap="round"/>
<circle cx="380" cy="445" r="8" fill="#1F6FEB" stroke="#FFFFFF" stroke-width="4"/>
<line x1="380" y1="495" x2="380" y2="517" stroke="#1F6FEB" stroke-width="4" stroke-linecap="round"/>
<polyline points="366,503 380,517 394,503" fill="none" stroke="#1F6FEB" stroke-width="4" stroke-linecap="round" stroke-linejoin="round"/>
<rect x="30" y="535" width="700" height="465" rx="26" fill="#EFFAF5" stroke="#BFE8D6" stroke-width="2"/>
<circle cx="380" cy="627" r="57" fill="#FFFFFF" stroke="#BFE8D6" stroke-width="3"/>

<g transform="translate(347.24 597.36) scale(0.78)" fill="none" stroke="#1F9D68" stroke-width="5" stroke-linecap="round" stroke-linejoin="round">
  <path d="M4 72 H84"/>
  <rect x="10" y="46" width="14" height="26" rx="2"/>
  <rect x="34" y="33" width="14" height="39" rx="2"/>
  <rect x="58" y="18" width="14" height="54" rx="2"/>
  <polyline points="8,45 31,30 48,34 72,10"/>
  <polyline points="62,10 72,10 72,20"/>
</g>
<line x1="72" y1="713" x2="688" y2="713" stroke="#BFE8D6" stroke-width="2"/>
<circle cx="380" cy="713" r="25" fill="#1F9D68"/>
<text x="380" y="721" fill="#FFFFFF" font-family="Inter, Segoe UI, Arial, sans-serif" font-size="20" font-weight="700" text-anchor="middle">02</text>
<text x="70" y="780" fill="#24292F" font-family="Inter, Segoe UI, Arial, sans-serif" font-size="30" font-weight="700" text-anchor="start"><tspan x="70" dy="0">Business and</tspan><tspan x="70" dy="36">data tools</tspan></text>
<text x="70" y="865" fill="#57606A" font-family="Inter, Segoe UI, Arial, sans-serif" font-size="19" font-weight="400" text-anchor="start"><tspan x="70" dy="0">Desktop and web utilities for importing, validating, transforming</tspan><tspan x="70" dy="27">and querying operational data while reducing repetitive manual work.</tspan></text>
<line x1="70" y1="960" x2="690" y2="960" stroke="#1F9D68" stroke-width="4" stroke-linecap="round"/>
<circle cx="380" cy="960" r="8" fill="#1F9D68" stroke="#FFFFFF" stroke-width="4"/>
<line x1="380" y1="1010" x2="380" y2="1032" stroke="#1F9D68" stroke-width="4" stroke-linecap="round"/>
<polyline points="366,1018 380,1032 394,1018" fill="none" stroke="#1F9D68" stroke-width="4" stroke-linecap="round" stroke-linejoin="round"/>
<rect x="30" y="1050" width="700" height="465" rx="26" fill="#F6F1FF" stroke="#DCCBFF" stroke-width="2"/>
<circle cx="380" cy="1142" r="57" fill="#FFFFFF" stroke="#DCCBFF" stroke-width="3"/>

<g transform="translate(347.24 1110.8) scale(0.78)" fill="none" stroke="#7C3AED" stroke-width="5" stroke-linecap="round" stroke-linejoin="round">
  <path d="M18 4 H60 L78 22 V76 H18 Z"/>
  <path d="M60 4 V22 H78"/>
  <path d="M8 25 V12 H21"/>
  <path d="M88 25 V12 H75"/>
  <path d="M8 55 V68 H21"/>
  <path d="M88 55 V68 H75"/>
  <text x="48" y="52" fill="#7C3AED" stroke="none" font-family="Inter, Segoe UI, Arial, sans-serif" font-size="18" font-weight="700" text-anchor="middle">OCR</text>
</g>
<line x1="72" y1="1228" x2="688" y2="1228" stroke="#DCCBFF" stroke-width="2"/>
<circle cx="380" cy="1228" r="25" fill="#7C3AED"/>
<text x="380" y="1236" fill="#FFFFFF" font-family="Inter, Segoe UI, Arial, sans-serif" font-size="20" font-weight="700" text-anchor="middle">03</text>
<text x="70" y="1295" fill="#24292F" font-family="Inter, Segoe UI, Arial, sans-serif" font-size="30" font-weight="700" text-anchor="start"><tspan x="70" dy="0">Offline OCR and</tspan><tspan x="70" dy="36">document processing</tspan></text>
<text x="70" y="1380" fill="#57606A" font-family="Inter, Segoe UI, Arial, sans-serif" font-size="19" font-weight="400" text-anchor="start"><tspan x="70" dy="0">Self-contained services for recognizing text and codes from</tspan><tspan x="70" dy="27">logistics labels, images, PDFs and TIFF documents without depending</tspan><tspan x="70" dy="27">on internet access.</tspan></text>
<line x1="70" y1="1475" x2="690" y2="1475" stroke="#7C3AED" stroke-width="4" stroke-linecap="round"/>
<circle cx="380" cy="1475" r="8" fill="#7C3AED" stroke="#FFFFFF" stroke-width="4"/>
<line x1="380" y1="1525" x2="380" y2="1547" stroke="#7C3AED" stroke-width="4" stroke-linecap="round"/>
<polyline points="366,1533 380,1547 394,1533" fill="none" stroke="#7C3AED" stroke-width="4" stroke-linecap="round" stroke-linejoin="round"/>
<rect x="30" y="1565" width="700" height="465" rx="26" fill="#FFF7ED" stroke="#FFD6B2" stroke-width="2"/>
<circle cx="380" cy="1657" r="57" fill="#FFFFFF" stroke="#FFD6B2" stroke-width="3"/>

<g transform="translate(344.12 1626.58) scale(0.78)" fill="none" stroke="#F97316" stroke-width="5" stroke-linecap="round" stroke-linejoin="round">
  <path d="M22 44 H70 C82 44 89 36 89 27 C89 17 81 10 71 10 C65 10 60 13 56 18 C52 9 44 4 34 4 C19 4 9 15 9 29 C9 38 14 44 22 44 Z"/>
  <ellipse cx="31" cy="61" rx="17" ry="7"/>
  <path d="M14 61 V75 C14 79 22 82 31 82 C40 82 48 79 48 75 V61"/>
  <path d="M14 68 C14 72 22 75 31 75 C40 75 48 72 48 68"/>
  <rect x="58" y="58" width="28" height="22" rx="4"/>
  <path d="M64 58 V52 C64 44 80 44 80 52 V58"/>
</g>
<line x1="72" y1="1743" x2="688" y2="1743" stroke="#FFD6B2" stroke-width="2"/>
<circle cx="380" cy="1743" r="25" fill="#F97316"/>
<text x="380" y="1751" fill="#FFFFFF" font-family="Inter, Segoe UI, Arial, sans-serif" font-size="20" font-weight="700" text-anchor="middle">04</text>
<text x="70" y="1810" fill="#24292F" font-family="Inter, Segoe UI, Arial, sans-serif" font-size="30" font-weight="700" text-anchor="start"><tspan x="70" dy="0">Full-stack and local-first</tspan><tspan x="70" dy="36">platforms</tspan></text>
<text x="70" y="1895" fill="#57606A" font-family="Inter, Segoe UI, Arial, sans-serif" font-size="19" font-weight="400" text-anchor="start"><tspan x="70" dy="0">Authenticated applications with REST APIs, relational databases,</tspan><tspan x="70" dy="27">responsive interfaces, containerized services and local or cloud-</tspan><tspan x="70" dy="27">backed persistence.</tspan></text>
<line x1="70" y1="1990" x2="690" y2="1990" stroke="#F97316" stroke-width="4" stroke-linecap="round"/>
<circle cx="380" cy="1990" r="8" fill="#F97316" stroke="#FFFFFF" stroke-width="4"/>
</svg>