<svg xmlns="http://www.w3.org/2000/svg" width="1200" height="340" viewBox="0 0 1200 340" role="img" aria-labelledby="title desc">
  <title id="title">Marcos Heredia GitHub profile details</title>
  <desc id="desc">250 contributions in 2026, 6 public repositories, GitHub member since 26 September 2024, and contribution activity chart.</desc>

  <rect x="8" y="8" width="1184" height="324" rx="10" fill="#03191E" stroke="#738290" stroke-width="2"/>

  <text x="56" y="69" fill="#941C2F" font-family="Segoe UI, Arial, sans-serif" font-size="31" font-weight="500">marcossheredia (Marcos Heredia)</text>

  <!-- Contributions icon -->
  <g transform="translate(55 112)" fill="none" stroke="#738290" stroke-width="3" stroke-linecap="round" stroke-linejoin="round">
    <path d="M12 2C6 2 2 6.6 2 12.4c0 4.7 3 8.7 7.2 10.1.5.1.7-.2.7-.5v-2c-2.9.6-3.5-1.2-3.5-1.2-.5-1.2-1.2-1.5-1.2-1.5-1-.7.1-.7.1-.7 1.1.1 1.7 1.1 1.7 1.1 1 1.7 2.6 1.2 3.2.9.1-.7.4-1.2.7-1.5-2.3-.3-4.7-1.2-4.7-5.1 0-1.1.4-2.1 1.1-2.8-.1-.3-.5-1.3.1-2.8 0 0 .9-.3 2.9 1.1a10.1 10.1 0 0 1 5.2 0c2-1.4 2.9-1.1 2.9-1.1.6 1.5.2 2.5.1 2.8.7.7 1.1 1.7 1.1 2.8 0 3.9-2.4 4.8-4.7 5.1.4.3.7.9.7 1.8V22c0 .3.2.6.7.5A10.6 10.6 0 0 0 22 12.4C22 6.6 18 2 12 2Z"/>
  </g>
  <text x="91" y="134" fill="#EBEBEB" font-family="Segoe UI, Arial, sans-serif" font-size="22">250 Contributions in 2026</text>

  <!-- Repository icon -->
  <g transform="translate(56 157)" fill="none" stroke="#738290" stroke-width="3" stroke-linecap="round" stroke-linejoin="round">
    <rect x="3" y="2" width="18" height="22" rx="2"/>
    <path d="M7 7h10M7 12h10M8 24v4l4-2 4 2v-4"/>
  </g>
  <text x="91" y="179" fill="#EBEBEB" font-family="Segoe UI, Arial, sans-serif" font-size="22">6 Public Repos</text>

  <!-- Calendar icon -->
  <g transform="translate(56 202)" fill="none" stroke="#738290" stroke-width="3" stroke-linecap="round" stroke-linejoin="round">
    <rect x="2" y="5" width="23" height="20" rx="5"/>
    <path d="M8 2v6M19 2v6M2 11h23"/>
    <path d="M8 16h4M15 16h4M8 21h4"/>
  </g>
  <text x="91" y="224" fill="#EBEBEB" font-family="Segoe UI, Arial, sans-serif" font-size="22">Joined GitHub 26 September 2024</text>

  <!-- Email icon -->
  <g transform="translate(56 247)" fill="none" stroke="#738290" stroke-width="3" stroke-linecap="round" stroke-linejoin="round">
    <rect x="2" y="4" width="25" height="19" rx="3"/>
    <path d="m4 7 10.5 8L25 7"/>
  </g>
  <text x="91" y="269" fill="#EBEBEB" font-family="Segoe UI, Arial, sans-serif" font-size="22">marcoss.heredia06@gmail.com</text>

  <!-- Chart title -->
  <text x="885" y="61" text-anchor="middle" fill="#738290" font-family="Segoe UI, Arial, sans-serif" font-size="15">contributions in the last year</text>

  <!-- Chart axes and guides -->
  <g stroke="#738290" stroke-width="2" fill="none" opacity="0.9">
    <line x1="458" y1="275" x2="1092" y2="275"/>
    <line x1="1092" y1="87" x2="1092" y2="275"/>
    <line x1="1092" y1="87" x2="1103" y2="87"/>
    <line x1="1092" y1="111" x2="1103" y2="111"/>
    <line x1="1092" y1="135" x2="1103" y2="135"/>
    <line x1="1092" y1="159" x2="1103" y2="159"/>
    <line x1="1092" y1="183" x2="1103" y2="183"/>
    <line x1="1092" y1="207" x2="1103" y2="207"/>
    <line x1="1092" y1="231" x2="1103" y2="231"/>
    <line x1="1092" y1="255" x2="1103" y2="255"/>
    <line x1="1092" y1="275" x2="1103" y2="275"/>
  </g>

  <!-- Contribution area -->
  <path d="M458 275
           C495 255 525 231 553 207
           C580 184 600 183 618 212
           C634 238 640 255 662 256
           C690 257 718 258 742 273
           C758 283 773 275 790 261
           C830 227 862 174 897 126
           C922 91 942 90 956 139
           C968 180 976 242 997 236
           C1017 230 1024 184 1043 168
           C1062 153 1072 178 1082 208
           C1090 231 1093 247 1092 254
           L1092 275 Z"
        fill="#941C2F" opacity="0.82"/>
  <path d="M458 275
           C495 255 525 231 553 207
           C580 184 600 183 618 212
           C634 238 640 255 662 256
           C690 257 718 258 742 273
           C758 283 773 275 790 261
           C830 227 862 174 897 126
           C922 91 942 90 956 139
           C968 180 976 242 997 236
           C1017 230 1024 184 1043 168
           C1062 153 1072 178 1082 208
           C1090 231 1093 247 1092 254"
        fill="none" stroke="#9882AC" stroke-width="3"/>

  <!-- Chart labels -->
  <g fill="#738290" font-family="Segoe UI, Arial, sans-serif" font-size="14">
    <text x="458" y="300" text-anchor="middle">25/07</text>
    <text x="569" y="300" text-anchor="middle">25/09</text>
    <text x="680" y="300" text-anchor="middle">25/11</text>
    <text x="789" y="300" text-anchor="middle">26/01</text>
    <text x="897" y="300" text-anchor="middle">26/03</text>
    <text x="1004" y="300" text-anchor="middle">26/05</text>
    <text x="1092" y="300" text-anchor="middle">26/07</text>

    <text x="1108" y="92">80</text>
    <text x="1108" y="116">70</text>
    <text x="1108" y="140">60</text>
    <text x="1108" y="164">50</text>
    <text x="1108" y="188">40</text>
    <text x="1108" y="212">30</text>
    <text x="1108" y="236">20</text>
    <text x="1108" y="260">10</text>
    <text x="1108" y="280">0</text>
  </g>
</svg>
